# xmcd CD database file
# Copyright (C) 1995-1998 Ti Kan
#
# Track frame offsets:
#	150
#	13525
#	25604
#	36256
#	49435
#	63202
#	78144
#	89916
#	103828
#	120008
#	135186
#	147322
#	159323
#	173847
#	192126
#	204632
#	222777
#	238179
#	256051
#	272123
#
# Disc length: 3857 seconds
#
# Revision: 2
# Processed by: cddbd v1.4b41PL1 Copyright (c) Steve Scherf et al.
# Submitted via: CDex 1.30Release
#
DISCID=0c0f0f14
DTITLE=Dolly Parton - Here You Come Again
DYEAR=2001
DGENRE=Country
TTITLE0=Here You Come Again
TTITLE1=Jolene
TTITLE2=Love Is Like A Butterfly
TTITLE3=I Will Always Love You
TTITLE4=Two Doors Down
TTITLE5=But You Know I Love You
TTITLE6=Baby I'm Burning
TTITLE7=Coat Of Many Colors
TTITLE8=Heartbreaker
TTITLE9=Tennessee Homesick Blues
TTITLE10=The Bargain Store
TTITLE11=To Daddy
TTITLE12=Harper Valley P.T.A.
TTITLE13=Do I Ever Cross Your Mind
TTITLE14=9 to 5
TTITLE15=The House Of The Rising Sun
TTITLE16=Nickles And Dimes
TTITLE17=Real Love
TTITLE18=Detroit City
TTITLE19=Save The Last Dance For Me
EXTD=YEAR: 2001 ID3G:   2
EXTT0=
EXTT1=
EXTT2=
EXTT3=
EXTT4=
EXTT5=
EXTT6=
EXTT7=
EXTT8=
EXTT9=
EXTT10=
EXTT11=
EXTT12=
EXTT13=
EXTT14=
EXTT15=
EXTT16=
EXTT17=
EXTT18=
EXTT19=
PLAYORDER=
